<svg width="20" height="20" viewBox="0 0 40 40" fill="none" xmlns="http://www.w3.org/2000/svg">
<path fill-rule="evenodd" clip-rule="evenodd" d="M22 2C22 1.46957 21.7893 0.960859 21.4142 0.585786C21.0391 0.210714 20.5304 0 20 0C19.4696 0 18.9609 0.210714 18.5858 0.585786C18.2107 0.960859 18 1.46957 18 2V6C18 6.53043 18.2107 7.03914 18.5858 7.41421C18.9609 7.78929 19.4696 8 20 8C20.5304 8 21.0391 7.78929 21.4142 7.41421C21.7893 7.03914 22 6.53043 22 6V2ZM8.686 5.858C8.3071 5.50269 7.80483 5.30873 7.28546 5.31716C6.76609 5.3256 6.27038 5.53576 5.90322 5.90319C5.53605 6.27061 5.32624 6.76647 5.31817 7.28584C5.31011 7.80521 5.50442 8.30735 5.86 8.686L8.688 11.514C9.0652 11.8783 9.57041 12.0799 10.0948 12.0753C10.6192 12.0708 11.1208 11.8605 11.4916 11.4896C11.8625 11.1188 12.0728 10.6172 12.0773 10.0928C12.0819 9.56841 11.8803 9.0632 11.516 8.686L8.686 5.858ZM34.142 8.686C34.5063 8.3088 34.7079 7.80359 34.7033 7.2792C34.6988 6.7548 34.4885 6.25318 34.1176 5.88236C33.7468 5.51155 33.2452 5.30121 32.7208 5.29665C32.1964 5.2921 31.6912 5.49368 31.314 5.858L28.486 8.686C28.1217 9.0632 27.9201 9.56841 27.9247 10.0928C27.9292 10.6172 28.1395 11.1188 28.5104 11.4896C28.8812 11.8605 29.3828 12.0708 29.9072 12.0753C30.4316 12.0799 30.9368 11.8783 31.314 11.514L34.142 8.686ZM20 10C17.3478 10 14.8043 11.0536 12.9289 12.9289C11.0536 14.8043 10 17.3478 10 20C10 22.6522 11.0536 25.1957 12.9289 27.0711C14.8043 28.9464 17.3478 30 20 30C22.6522 30 25.1957 28.9464 27.0711 27.0711C28.9464 25.1957 30 22.6522 30 20C30 17.3478 28.9464 14.8043 27.0711 12.9289C25.1957 11.0536 22.6522 10 20 10ZM2 18C1.46957 18 0.960859 18.2107 0.585786 18.5858C0.210714 18.9609 0 19.4696 0 20C0 20.5304 0.210714 21.0391 0.585786 21.4142C0.960859 21.7893 1.46957 22 2 22H6C6.53043 22 7.03914 21.7893 7.41421 21.4142C7.78929 21.0391 8 20.5304 8 20C8 19.4696 7.78929 18.9609 7.41421 18.5858C7.03914 18.2107 6.53043 18 6 18H2ZM34 18C33.4696 18 32.9609 18.2107 32.5858 18.5858C32.2107 18.9609 32 19.4696 32 20C32 20.5304 32.2107 21.0391 32.5858 21.4142C32.9609 21.7893 33.4696 22 34 22H38C38.5304 22 39.0391 21.7893 39.4142 21.4142C39.7893 21.0391 40 20.5304 40 20C40 19.4696 39.7893 18.9609 39.4142 18.5858C39.0391 18.2107 38.5304 18 38 18H34ZM11.514 31.314C11.705 31.1295 11.8574 30.9088 11.9622 30.6648C12.067 30.4208 12.1222 30.1584 12.1245 29.8928C12.1268 29.6272 12.0762 29.3639 11.9756 29.1181C11.8751 28.8723 11.7266 28.649 11.5388 28.4612C11.351 28.2734 11.1277 28.1249 10.8819 28.0244C10.6361 27.9238 10.3728 27.8732 10.1072 27.8755C9.84164 27.8778 9.5792 27.933 9.33519 28.0378C9.09118 28.1426 8.87049 28.295 8.686 28.486L5.858 31.314C5.66698 31.4985 5.51462 31.7192 5.4098 31.9632C5.30498 32.2072 5.24981 32.4696 5.2475 32.7352C5.24519 33.0008 5.29579 33.2641 5.39636 33.5099C5.49692 33.7557 5.64542 33.979 5.83321 34.1668C6.021 34.3546 6.2443 34.5031 6.49009 34.6036C6.73588 34.7042 6.99924 34.7548 7.2648 34.7525C7.53036 34.7502 7.7928 34.695 8.03681 34.5902C8.28082 34.4854 8.50151 34.333 8.686 34.142L11.514 31.314ZM31.314 28.486C30.9368 28.1217 30.4316 27.9201 29.9072 27.9247C29.3828 27.9292 28.8812 28.1395 28.5104 28.5104C28.1395 28.8812 27.9292 29.3828 27.9247 29.9072C27.9201 30.4316 28.1217 30.9368 28.486 31.314L31.314 34.142C31.6912 34.5063 32.1964 34.7079 32.7208 34.7033C33.2452 34.6988 33.7468 34.4885 34.1176 34.1176C34.4885 33.7468 34.6988 33.2452 34.7033 32.7208C34.7079 32.1964 34.5063 31.6912 34.142 31.314L31.314 28.486ZM22 34C22 33.4696 21.7893 32.9609 21.4142 32.5858C21.0391 32.2107 20.5304 32 20 32C19.4696 32 18.9609 32.2107 18.5858 32.5858C18.2107 32.9609 18 33.4696 18 34V38C18 38.5304 18.2107 39.0391 18.5858 39.4142C18.9609 39.7893 19.4696 40 20 40C20.5304 40 21.0391 39.7893 21.4142 39.4142C21.7893 39.0391 22 38.5304 22 38V34Z" fill="white"/>
</svg>
